<svg display="none" width="20px" height="20px" xmlns="http://www.w3.org/2000/svg" >

    <symbol id="logo" width="160" height="18" viewBox="0 0 160 18" fill="none">
        <g>
           <path d="M73.2482 17.55H85.1064V12.0938H81.305V13.7812H76.9929V3.76875H81.305V5.45625H85.1064V0H73.2482V17.55ZM58.2128 17.55H70.0709V0H58.2128V17.55ZM62.0142 3.76875H66.3262V13.7812H62.0142V3.76875ZM44.8794 17.55H48.6809V3.76875H55.3759V0H44.8794V17.55ZM29.9574 17.55H41.8156V12.0938H38.0142V13.7812H33.7021V3.76875H38.0142V5.45625H41.8156V0H29.9574V17.55ZM88.1135 17.55H99.9716V12.0938H96.1702V13.7812H91.9149V3.76875H96.227V5.45625H100.028V0H88.1702V17.55H88.1135ZM117.22 17.55H121.021V12.2625H129.135V0H117.277V17.55H117.22ZM121.021 3.76875H125.333V8.55H121.021V3.76875ZM159.716 0H155.688L153.589 6.80625H152.567L150.525 0H146.496L149.504 8.71875L146.27 17.55H150.298L152.624 10.575H153.645L155.972 17.55H160L156.766 8.71875L159.716 0ZM0 17.55H3.80142V12.2625H11.9149V0H0V17.55ZM3.80142 3.76875H8.11348V8.55H3.80142V3.76875ZM133.277 0L131.574 17.55H135.376L135.773 13.3875H139.915L140.312 17.55H144.113L142.411 0H133.277V0ZM136.057 9.61875L136.624 3.7125H139.007L139.574 9.61875H136.057ZM14.9787 17.55H26.8369V0H14.9787V17.55ZM18.7234 3.76875H23.0355V13.7812H18.7234V3.76875ZM102.638 3.76875H106.667V17.55H110.468V3.76875H114.496V0H102.638V3.76875Z" fill="#AC0339"/>
        </g>
    </symbol>

    <symbol id="mobile" width="40" height="40" viewBox="0 0 40 40" fill="none">
        <g>
            <path d="M12.9281 28.7161C12.9281 29.02 13.1775 29.2694 13.4814 29.2694H21.5313C21.8352 29.2694 22.0845 29.02 22.0845 28.7161C22.0845 28.4122 21.8352 28.1628 21.5313 28.1628H13.4814C13.1775 28.1628 12.9281 28.4122 12.9281 28.7161Z" fill="#AC0339"/>
            <path d="M40 9.9435V3.23398C40 2.93006 39.7506 2.68069 39.4467 2.68069H29.9396V1.89363C29.9396 0.849406 29.0824 0 28.046 0H11.954C10.9098 0 10.0604 0.857198 10.0604 1.89363V4.69121H0.553283C0.249367 4.69121 0 4.94058 0 5.2445V13.2944C0 13.5983 0.249367 13.8477 0.553283 13.8477H10.0604V15.4218H9.9435C8.15897 15.4218 6.70953 16.8712 6.70953 18.6558V21.391L8.04987 35.4413V39.4467C8.04987 39.7506 8.29924 40 8.60316 40H23.3548C23.6587 40 23.908 39.7506 23.908 39.4467V35.5971L26.4563 31.9501H28.046C29.0902 31.9501 29.9396 31.0929 29.9396 30.0565V29.2694H30.7267H30.7345C31.4124 29.2694 32.0514 29.0045 32.5346 28.5291C33.0177 28.046 33.2905 27.407 33.2905 26.7212C33.2905 25.9731 32.971 25.264 32.4099 24.7808L32.3086 24.6951L32.4099 24.6094C32.9242 24.173 33.2359 23.5574 33.2905 22.8794C33.345 22.2014 33.1268 21.5469 32.6904 21.0403C32.6047 20.939 32.5112 20.8533 32.4177 20.7676L32.3164 20.6819L32.4177 20.5961C32.932 20.1597 33.2437 19.5441 33.2983 18.8662C33.3528 18.1882 33.1346 17.5336 32.6982 17.0271C32.6125 16.9258 32.519 16.8401 32.4255 16.7543L32.3242 16.6686L32.4255 16.5829C32.9398 16.1387 33.2515 15.5153 33.3061 14.8373C33.3528 14.1594 33.1346 13.497 32.6904 12.9827C32.2073 12.4216 31.4982 12.0943 30.7578 12.0943H30.7501H29.963V10.5202H39.4701C39.7506 10.4968 40 10.2474 40 9.9435ZM25.3263 1.10657L25.0847 2.08065C24.999 2.43133 24.6873 2.68069 24.3211 2.68069H15.6789C15.3127 2.68069 15.001 2.43133 14.9153 2.08065L14.6737 1.10657H25.3263ZM1.10657 12.7411V5.79778H13.4113V12.7411H1.10657ZM22.8015 38.8934H9.15644V35.979H22.8015V38.8934ZM23.0664 34.8724H9.10189L7.8083 21.3442V18.6636C7.8083 17.4946 8.7668 16.5361 9.93571 16.5361H14.6269C15.8036 16.5361 16.7543 17.4946 16.7543 18.6636C16.7543 19.8325 15.7958 20.791 14.6269 20.791H10.6059C10.302 20.791 10.0526 21.0403 10.0526 21.3442V30.0643C10.0526 31.1085 10.9098 31.9579 11.9462 31.9579H25.1003L23.0664 34.8724ZM28.833 30.0565C28.833 30.4929 28.4824 30.8436 28.046 30.8436H11.954C11.5176 30.8436 11.167 30.4929 11.167 30.0565V21.8975H14.6347C16.4192 21.8975 17.8687 20.4481 17.8687 18.6636C17.8687 16.879 16.4192 15.4296 14.6347 15.4296H11.167V13.8554H13.9645C14.2685 13.8554 14.5178 13.6061 14.5178 13.3022V5.2445C14.5178 4.94058 14.2685 4.69121 13.9645 4.69121H11.167V1.89363C11.167 1.45724 11.5176 1.10657 11.954 1.10657H13.5359L13.8477 2.3534C14.0581 3.19501 14.8139 3.78726 15.6867 3.78726H24.3211C25.1938 3.78726 25.9497 3.19501 26.1601 2.3534L26.4719 1.10657H28.0538C28.4902 1.10657 28.8408 1.45724 28.8408 1.89363V2.68069H27.3836C27.0797 2.68069 26.8303 2.93006 26.8303 3.23398V9.9435C26.8303 10.2474 27.0797 10.4968 27.3836 10.4968H28.833V12.0709H28.046C27.3602 12.0709 26.7212 12.3359 26.2381 12.8112C25.7549 13.2944 25.4822 13.9334 25.4822 14.6191C25.4822 15.3672 25.8017 16.0764 26.3628 16.5595L26.4641 16.6452L26.3628 16.731C25.3029 17.6427 25.1783 19.2402 26.09 20.3C26.1757 20.4013 26.2692 20.487 26.3628 20.5728L26.4641 20.6585L26.3628 20.7442C25.3029 21.656 25.1783 23.2535 26.09 24.3133C26.1757 24.4146 26.2692 24.5003 26.3628 24.586L26.4641 24.6717L26.3628 24.7575C25.2951 25.677 25.1783 27.2979 26.0978 28.3655C26.5809 28.9266 27.2901 29.2461 28.0304 29.2461H28.0382H28.833V30.0565ZM30.7267 28.1629H28.046C27.2433 28.1629 26.5887 27.5083 26.5887 26.7056C26.5887 25.903 27.2433 25.2484 28.046 25.2484H30.7267C31.5293 25.2484 32.1839 25.903 32.1839 26.7056C32.1839 27.5083 31.5371 28.1629 30.7267 28.1629ZM30.7267 24.1418H28.046C27.2433 24.1418 26.5887 23.4872 26.5887 22.6846C26.5887 21.8819 27.2433 21.2274 28.046 21.2274H30.7267C31.5293 21.2274 32.1839 21.8819 32.1839 22.6846C32.1839 23.4872 31.5371 24.1418 30.7267 24.1418ZM30.7267 20.1208H28.046C27.2433 20.1208 26.5887 19.4662 26.5887 18.6636C26.5887 17.8609 27.2433 17.2063 28.046 17.2063H30.7267C31.5293 17.2063 32.1839 17.8609 32.1839 18.6636C32.1839 19.4662 31.5371 20.1208 30.7267 20.1208ZM30.7267 13.1775C31.5293 13.1775 32.1839 13.8321 32.1839 14.6347C32.1839 15.4374 31.5293 16.092 30.7267 16.092H28.046C27.2433 16.092 26.5887 15.4374 26.5887 14.6347C26.5887 13.8321 27.2433 13.1775 28.046 13.1775H30.7267ZM38.8934 9.39022H27.9291V3.78726H38.8934V9.39022Z" fill="#AC0339"/>
            <path d="M2.71191 7.93292C2.71191 8.23684 2.96128 8.48621 3.2652 8.48621H8.62658C8.9305 8.48621 9.17987 8.23684 9.17987 7.93292C9.17987 7.62901 8.9305 7.37964 8.62658 7.37964H3.2652C2.96128 7.37964 2.71191 7.62121 2.71191 7.93292Z" fill="#AC0339"/>
            <path d="M2.68066 10.6136C2.68066 10.9175 2.93003 11.1669 3.23395 11.1669H11.2838C11.5877 11.1669 11.8371 10.9175 11.8371 10.6136C11.8371 10.3097 11.5877 10.0603 11.2838 10.0603H3.23395C2.93003 10.0603 2.68066 10.3097 2.68066 10.6136Z" fill="#AC0339"/>
            <path d="M31.6306 6.59277C31.6306 6.89668 31.88 7.14605 32.1839 7.14605H34.8646C35.1685 7.14605 35.4179 6.89668 35.4179 6.59277C35.4179 6.28885 35.1685 6.03948 34.8646 6.03948H32.1839C31.88 6.03169 31.6306 6.28106 31.6306 6.59277Z" fill="#AC0339"/>
        </g>
    </symbol>

    <symbol id="rocket" width="41" height="40" viewBox="0 0 41 40" fill="none">
        <g>
            <path d="M28.2382 7.97705C27.2697 7.97705 26.3012 8.34713 25.5689 9.07941C24.0965 10.5519 24.0965 12.9534 25.5689 14.4259C27.0414 15.8983 29.4429 15.8983 30.9154 14.4259C31.6319 13.7093 32.0256 12.7645 32.0256 11.7566C32.0256 10.7487 31.6319 9.79595 30.9154 9.08729C30.1752 8.34713 29.2067 7.97705 28.2382 7.97705ZM30.0178 13.544C29.5296 14.0322 28.8839 14.2841 28.2382 14.2841C27.5926 14.2841 26.9469 14.04 26.4587 13.544C25.4744 12.5597 25.4744 10.9613 26.4587 9.97705C27.4429 8.9928 29.0414 8.9928 30.0256 9.97705C30.4981 10.4495 30.7658 11.0873 30.7658 11.7566C30.7579 12.4337 30.4902 13.0637 30.0178 13.544Z" fill="#AC0339"/>
            <path d="M40.002 0.646327C40.0098 0.473099 39.939 0.29987 39.8209 0.18176C39.6949 0.0557756 39.5295 -0.00721649 39.3563 0.000657524C39.1752 0.00853154 34.9626 0.173886 29.9469 1.95341C25.9311 3.37074 22.5847 5.40223 20.002 7.98491C19.4272 8.55971 18.8602 9.17389 18.3169 9.81956L18.2303 9.92192L18.1122 9.8353C15.5925 8.34711 13.5768 8.82743 12.3327 9.49672C9.38781 11.0715 7.56104 15.3629 7.56104 18.4337C7.56104 18.6857 7.71064 18.914 7.94686 19.0164C8.0256 19.0479 8.10434 19.0637 8.19096 19.0637C8.35631 19.0637 8.51379 19.0007 8.63977 18.8825C9.89962 17.6227 11.4036 17.4022 12.3012 17.4022C12.5768 17.4022 12.7973 17.4259 12.939 17.4416L12.9941 17.4495L13.3799 17.8353L13.3406 17.9298C12.7973 19.2133 12.3642 20.4967 12.0492 21.7329C11.9469 22.1503 11.9705 22.5833 12.1358 23.0007L12.191 23.1424L12.0571 23.2054C11.3091 23.5518 10.5925 24.0558 9.97836 24.67C7.99411 26.6542 7.58466 31.5361 7.56891 31.7487C7.55316 31.9298 7.62403 32.1109 7.75001 32.2448C7.876 32.3707 8.06497 32.4416 8.24607 32.4259C8.4508 32.4101 13.3327 32.0085 15.3248 30.0164C15.939 29.4022 16.4508 28.6778 16.7894 27.9377L16.8524 27.8038L16.9941 27.8589C17.4114 28.0243 17.8524 28.0558 18.2697 27.9455C19.5059 27.6306 20.7894 27.1896 22.0728 26.6542L22.1673 26.6148L22.5532 27.0007L22.561 27.0558C22.6398 27.6463 22.7658 29.7093 21.1201 31.355C20.939 31.5361 20.8839 31.8038 20.9862 32.04C21.0807 32.2763 21.3091 32.4259 21.5689 32.4259C24.6398 32.4259 28.9311 30.5991 30.5059 27.6542C31.1752 26.4101 31.6555 24.4022 30.1673 21.8747L30.0965 21.7566L30.1988 21.67C30.8366 21.1266 31.4587 20.5597 32.0335 19.9849C34.6161 17.4022 36.6476 14.0558 38.065 10.04C39.8287 5.03215 39.9941 0.819555 40.002 0.646327ZM9.2382 16.8825L8.93899 17.04L9.00985 16.7093C9.47442 14.4652 10.8602 11.7093 12.9311 10.607C14.2697 9.89042 15.7264 9.96129 17.2776 10.8038L17.435 10.8904L17.3248 11.0322C16.0571 12.7014 14.9469 14.5046 14.0335 16.3944L13.9547 16.5518L13.8051 16.4574C13.7894 16.4495 13.7736 16.4337 13.7658 16.418C13.6713 16.3156 13.561 16.2526 13.435 16.229C13.3484 16.229 11.3091 15.7881 9.2382 16.8825ZM15.7894 27.0558C15.5217 27.7881 15.0492 28.5046 14.4272 29.1266C13.2067 30.3471 10.3012 30.8826 9.11222 31.0558L8.89962 31.0951L8.93111 30.8825C9.10434 29.6936 9.63977 26.7881 10.8602 25.5676C11.4823 24.9455 12.1988 24.4731 12.9311 24.2054L13.0256 24.1739L15.8209 26.9692L15.7894 27.0558ZM20.9705 25.7408C19.9469 26.1424 18.9311 26.481 17.9469 26.7329C17.8839 26.7487 17.8287 26.7566 17.7658 26.7566C17.5374 26.7566 17.2933 26.6542 17.1122 26.4731L13.5374 22.8983C13.3012 22.6621 13.1988 22.3392 13.2697 22.0637C13.5217 21.0794 13.8524 20.0637 14.2618 19.04L14.3484 18.8196L21.1988 25.67L20.9705 25.7408ZM29.3878 27.0637C28.2854 29.1266 25.5295 30.5203 23.2854 30.977L22.9547 31.0479L23.1122 30.7487C23.8681 29.3314 24.002 27.5597 23.7421 26.5361C23.6949 26.3629 23.6004 26.2605 23.561 26.229C23.5453 26.2133 23.5374 26.2054 23.5217 26.1818L23.4272 26.0322L23.5847 25.9534C25.4823 25.0322 27.2854 23.9298 28.9469 22.6621L29.0886 22.5518L29.1752 22.7093C30.0335 24.2684 30.0965 25.7329 29.3878 27.0637ZM36.6949 10.103C35.3484 13.7329 33.4823 16.7644 31.1358 19.1109C30.4193 19.8274 29.6555 20.5125 28.8524 21.1581C26.9311 22.7093 24.8051 24.0243 22.5453 25.0715L22.4429 25.1188L14.8839 17.5597L14.9311 17.4574C15.9784 15.1975 17.2933 13.0715 18.8445 11.1503C19.4902 10.3471 20.1831 9.57546 20.8917 8.8668C23.2303 6.52034 26.2618 4.64633 29.8917 3.29987L29.9862 3.26837L36.7264 10.0085L36.6949 10.103ZM37.1831 8.67782L31.3091 2.80381L31.561 2.72507C34.5768 1.78806 37.2067 1.4416 38.498 1.31562L38.687 1.29987L38.6713 1.48885C38.5453 2.78806 38.1988 5.41011 37.2618 8.42585L37.1831 8.67782Z" fill="#AC0339"/>
            <path d="M18.6634 32.4731C18.5374 32.3471 18.38 32.292 18.2146 32.292C18.0492 32.292 17.8918 32.355 17.7658 32.4731L15.5374 34.7014C15.2933 34.9455 15.2933 35.3471 15.5374 35.5912C15.7815 35.8353 16.1831 35.8353 16.4272 35.5912L18.6555 33.3629C18.9075 33.1188 18.9075 32.7172 18.6634 32.4731Z" fill="#AC0339"/>
            <path d="M4.22241 24.0086C4.22241 24.1739 4.2854 24.3314 4.40351 24.4574C4.64761 24.7015 5.04918 24.7015 5.29328 24.4574L7.52163 22.2291C7.76572 21.985 7.76572 21.5834 7.52163 21.3393C7.39564 21.2133 7.23816 21.1582 7.07281 21.1582C6.90745 21.1582 6.74997 21.2212 6.62399 21.3393L4.39564 23.5677C4.2854 23.6779 4.22241 23.8354 4.22241 24.0086Z" fill="#AC0339"/>
            <path d="M6.86813 39.8117C6.98624 39.9298 7.14372 39.9928 7.31695 39.9928C7.4823 39.9928 7.63978 39.9298 7.76577 39.8117L13.0965 34.481C13.3406 34.2369 13.3406 33.8354 13.0965 33.5913C12.9784 33.4731 12.8209 33.4102 12.6477 33.4102C12.4823 33.4102 12.3248 33.4731 12.1988 33.5913L6.86813 38.922C6.62403 39.1661 6.62403 39.5598 6.86813 39.8117Z" fill="#AC0339"/>
            <path d="M0.568935 39.8117C0.687045 39.9298 0.844526 39.9928 1.01775 39.9928C1.18311 39.9928 1.34059 39.9298 1.46657 39.8117L6.79728 34.481C7.04138 34.2369 7.04138 33.8354 6.79728 33.5913C6.6713 33.4653 6.51382 33.4102 6.34846 33.4102C6.18311 33.4102 6.02563 33.4731 5.89964 33.5913L0.568935 38.9141C0.324841 39.1661 0.324841 39.5598 0.568935 39.8117Z" fill="#AC0339"/>
            <path d="M5.9626 26.7173C5.80512 26.7173 5.63976 26.7803 5.51378 26.8984L0.183071 32.237C-0.0610236 32.4811 -0.0610236 32.8826 0.183071 33.1267C0.301181 33.2448 0.458661 33.3078 0.63189 33.3078C0.797244 33.3078 0.954724 33.2448 1.08071 33.1267L6.41142 27.796C6.65551 27.5519 6.65551 27.1504 6.41142 26.9063C6.28543 26.7803 6.12795 26.7173 5.9626 26.7173Z" fill="#AC0339"/>
        </g>
    </symbol>

    <symbol id="surface" width="40" height="40" viewBox="0 0 40 40" fill="none">
        <g>
            <path d="M10 22.0688H2C0.895666 22.0688 0 22.9954 0 24.1378V37.9309C0 39.0733 0.895666 39.9999 2 39.9999H10C11.1043 39.9999 12 39.0733 12 37.9309V24.1378C12 22.9954 11.1043 22.0688 10 22.0688ZM10.6667 37.9309C10.6667 38.3119 10.3683 38.6206 10 38.6206H2C1.63167 38.6206 1.33333 38.3119 1.33333 37.9309V24.1378C1.33333 23.7568 1.63167 23.4482 2 23.4482H10C10.3683 23.4482 10.6667 23.7568 10.6667 24.1378V37.9309Z" fill="#AC0339"/>
            <path d="M37.9999 15.1724H29.9999C28.8956 15.1724 27.9999 16.0989 27.9999 17.2413V37.931C27.9999 39.0734 28.8956 39.9999 29.9999 39.9999H37.9999C39.1043 39.9999 39.9999 39.0734 39.9999 37.931V17.2413C39.9999 16.0989 39.1043 15.1724 37.9999 15.1724ZM38.6666 37.931C38.6666 38.312 38.3683 38.6206 37.9999 38.6206H29.9999C29.6316 38.6206 29.3333 38.312 29.3333 37.931V17.2413C29.3333 16.8603 29.6316 16.5517 29.9999 16.5517H37.9999C38.3683 16.5517 38.6666 16.8603 38.6666 17.2413V37.931Z" fill="#AC0339"/>
            <path d="M24 18.6206H16.0001C14.8957 18.6206 14.0001 19.5472 14.0001 20.6896V37.9309C14.0001 39.0733 14.8957 39.9999 16.0001 39.9999H24C25.1044 39.9999 26 39.0733 26 37.9309V20.6896C26 19.5472 25.1044 18.6206 24 18.6206ZM24.6667 37.9309C24.6667 38.312 24.3684 38.6206 24 38.6206H16.0001C15.6317 38.6206 15.3334 38.312 15.3334 37.9309V20.6896C15.3334 20.3085 15.6317 19.9999 16.0001 19.9999H24C24.3684 19.9999 24.6667 20.3085 24.6667 20.6896V37.9309Z" fill="#AC0339"/>
            <path d="M24.862 14.2807C25.1225 14.5498 25.5442 14.5498 25.8047 14.2807L37.3333 2.35448V3.44827C37.3333 3.8293 37.6317 4.13793 38 4.13793C38.3683 4.13793 38.6667 3.8293 38.6667 3.44827V0.689654C38.665 0.60724 38.6497 0.525689 38.62 0.44862C38.6108 0.425517 38.6003 0.402586 38.5892 0.379655C38.5642 0.328448 38.533 0.280172 38.496 0.236551C38.4365 0.160345 38.3603 0.100172 38.2733 0.0613792C38.267 0.0613792 38.2627 0.0534482 38.2565 0.0513792C38.1825 0.0210344 38.1042 0.00482758 38.0248 0.00327587C38.0147 0.00482758 38.0082 0 38 0H35.3334C34.965 0 34.6667 0.30862 34.6667 0.689654C34.6667 1.07069 34.965 1.37931 35.3334 1.37931H36.3907L25.3334 12.8179L19.4714 6.75378C19.2109 6.48465 18.7892 6.48465 18.5287 6.75378L11.6667 13.8524L8.47137 10.5469C8.21087 10.2777 7.7892 10.2777 7.5287 10.5469L1.52871 16.7538C1.35537 16.9267 1.28587 17.1834 1.34687 17.4245C1.40804 17.6657 1.58987 17.8538 1.82304 17.917C2.05604 17.9801 2.30421 17.9083 2.47137 17.7289L8.00003 12.0096L11.1954 15.3152C11.4559 15.5843 11.8775 15.5843 12.138 15.3152L19 8.21654L24.862 14.2807Z" fill="#AC0339"/>
        </g>
    </symbol>

    <symbol id="work" width="40" height="40" viewBox="0 0 40 40" fill="none">
        <g>
           <path d="M38 8H29.3333V5.33333C29.3311 3.49316 27.8402 2.00228 26 2H14C12.1598 2.00228 10.6689 3.49316 10.6667 5.33333V8H2C0.895508 8 0 8.89551 0 10V24.8398C0.00423177 25.6855 0.537109 26.4378 1.33333 26.722V36C1.33333 37.1045 2.22884 38 3.33333 38H36.6667C37.7712 38 38.6667 37.1045 38.6667 36V26.7227C39.4629 26.4382 39.9961 25.6855 40 24.8398V10C40 8.89551 39.1045 8 38 8ZM12 5.33333C12 4.22884 12.8955 3.33333 14 3.33333H26C27.1045 3.33333 28 4.22884 28 5.33333V8H26.6667V5.33333C26.6667 4.96517 26.3682 4.66667 26 4.66667H14C13.6318 4.66667 13.3333 4.96517 13.3333 5.33333V8H12V5.33333ZM25.3333 8H14.6667V6H25.3333V8ZM37.3333 36C37.3333 36.3682 37.0348 36.6667 36.6667 36.6667H3.33333C2.96517 36.6667 2.66667 36.3682 2.66667 36V26.9512L17.3333 28.974V30.6667C17.3333 31.7712 18.2288 32.6667 19.3333 32.6667H20.6667C21.7712 32.6667 22.6667 31.7712 22.6667 30.6667V28.974L37.3333 26.9512V36ZM21.3333 30.6667C21.3333 31.0348 21.0348 31.3333 20.6667 31.3333H19.3333C18.9652 31.3333 18.6667 31.0348 18.6667 30.6667V26.6667C18.6667 26.2985 18.9652 26 19.3333 26H20.6667C21.0348 26 21.3333 26.2985 21.3333 26.6667V30.6667ZM38.6667 24.8398C38.667 25.1722 38.4225 25.4541 38.0934 25.5007L37.9085 25.526L22.6667 27.6279V26.6667C22.6667 25.5622 21.7712 24.6667 20.6667 24.6667H19.3333C18.2288 24.6667 17.3333 25.5622 17.3333 26.6667V27.6279L1.90723 25.5007C1.57812 25.4544 1.33301 25.1725 1.33333 24.8398V10C1.33333 9.63184 1.63184 9.33333 2 9.33333H38C38.3682 9.33333 38.6667 9.63184 38.6667 10V24.8398Z" fill="#AC0339"/>
        </g>
    </symbol>

    <symbol id="arrow1" width="15" height="20" viewBox="0 0 15 20" fill="none">
        <g>
            <path fill-rule="evenodd" clip-rule="evenodd" d="M14.7017 13.6601L8.22017 19.7211C7.82243 20.093 7.17757 20.093 6.77983 19.7211L0.298303 13.6601C-0.0994354 13.2882 -0.0994354 12.6852 0.298303 12.3133C0.696042 11.9413 1.3409 11.9413 1.73864 12.3133L6.48153 16.7484L6.48153 -3.72354e-07L8.51847 -2.83317e-07L8.51847 16.7484L13.2614 12.3133C13.6591 11.9413 14.304 11.9413 14.7017 12.3133C15.0994 12.6852 15.0994 13.2882 14.7017 13.6601Z" fill="white"/>
        </g>
    </symbol>


    <symbol id="work" width="40" height="40" viewBox="0 0 40 40" fill="none">
        <g>
           <path d="M38 8H29.3333V5.33333C29.3311 3.49316 27.8402 2.00228 26 2H14C12.1598 2.00228 10.6689 3.49316 10.6667 5.33333V8H2C0.895508 8 0 8.89551 0 10V24.8398C0.00423177 25.6855 0.537109 26.4378 1.33333 26.722V36C1.33333 37.1045 2.22884 38 3.33333 38H36.6667C37.7712 38 38.6667 37.1045 38.6667 36V26.7227C39.4629 26.4382 39.9961 25.6855 40 24.8398V10C40 8.89551 39.1045 8 38 8ZM12 5.33333C12 4.22884 12.8955 3.33333 14 3.33333H26C27.1045 3.33333 28 4.22884 28 5.33333V8H26.6667V5.33333C26.6667 4.96517 26.3682 4.66667 26 4.66667H14C13.6318 4.66667 13.3333 4.96517 13.3333 5.33333V8H12V5.33333ZM25.3333 8H14.6667V6H25.3333V8ZM37.3333 36C37.3333 36.3682 37.0348 36.6667 36.6667 36.6667H3.33333C2.96517 36.6667 2.66667 36.3682 2.66667 36V26.9512L17.3333 28.974V30.6667C17.3333 31.7712 18.2288 32.6667 19.3333 32.6667H20.6667C21.7712 32.6667 22.6667 31.7712 22.6667 30.6667V28.974L37.3333 26.9512V36ZM21.3333 30.6667C21.3333 31.0348 21.0348 31.3333 20.6667 31.3333H19.3333C18.9652 31.3333 18.6667 31.0348 18.6667 30.6667V26.6667C18.6667 26.2985 18.9652 26 19.3333 26H20.6667C21.0348 26 21.3333 26.2985 21.3333 26.6667V30.6667ZM38.6667 24.8398C38.667 25.1722 38.4225 25.4541 38.0934 25.5007L37.9085 25.526L22.6667 27.6279V26.6667C22.6667 25.5622 21.7712 24.6667 20.6667 24.6667H19.3333C18.2288 24.6667 17.3333 25.5622 17.3333 26.6667V27.6279L1.90723 25.5007C1.57812 25.4544 1.33301 25.1725 1.33333 24.8398V10C1.33333 9.63184 1.63184 9.33333 2 9.33333H38C38.3682 9.33333 38.6667 9.63184 38.6667 10V24.8398Z" fill="#AC0339"/>
        </g>
    </symbol>

</svg>
